<svg width="24" height="24" viewBox="0 0 24 24" fill="none" xmlns="http://www.w3.org/2000/svg">
<path d="M12 2.625C10.1458 2.625 8.33324 3.17483 6.79153 4.20497C5.24982 5.23511 4.04821 6.69929 3.33863 8.41234C2.62906 10.1254 2.44341 12.0104 2.80514 13.829C3.16688 15.6475 4.05976 17.318 5.37088 18.6291C6.682 19.9402 8.35246 20.8331 10.171 21.1949C11.9896 21.5566 13.8746 21.3709 15.5877 20.6614C17.3007 19.9518 18.7649 18.7502 19.795 17.2085C20.8252 15.6668 21.375 13.8542 21.375 12C21.37 9.51512 20.3807 7.13343 18.6237 5.37635C16.8666 3.61927 14.4849 2.62995 12 2.625ZM12 20.625C10.2941 20.625 8.62658 20.1192 7.20821 19.1714C5.78984 18.2237 4.68435 16.8767 4.03154 15.3006C3.37874 13.7246 3.20793 11.9904 3.54073 10.3173C3.87353 8.64426 4.69498 7.10743 5.90121 5.9012C7.10744 4.69498 8.64426 3.87352 10.3174 3.54073C11.9904 3.20793 13.7246 3.37873 15.3006 4.03154C16.8767 4.68434 18.2237 5.78983 19.1714 7.20821C20.1192 8.62658 20.625 10.2941 20.625 12C20.6225 14.2867 19.713 16.4791 18.0961 18.0961C16.4791 19.713 14.2867 20.6225 12 20.625ZM15.2063 11.6906L10.7063 8.69062C10.6499 8.65306 10.5843 8.63149 10.5167 8.62818C10.449 8.62488 10.3817 8.63998 10.3219 8.67188C10.262 8.70305 10.2118 8.75021 10.1771 8.80813C10.1423 8.86605 10.1243 8.93246 10.125 9V15C10.1243 15.0675 10.1423 15.134 10.1771 15.1919C10.2118 15.2498 10.262 15.297 10.3219 15.3281C10.3771 15.3567 10.4379 15.3727 10.5 15.375C10.5741 15.3764 10.6466 15.3533 10.7063 15.3094L15.2063 12.3094C15.2585 12.2764 15.3016 12.2308 15.3315 12.1767C15.3614 12.1226 15.377 12.0618 15.377 12C15.377 11.9382 15.3614 11.8774 15.3315 11.8233C15.3016 11.7692 15.2585 11.7236 15.2063 11.6906ZM10.875 14.2969V9.70312L14.325 12L10.875 14.2969Z" fill="black"/>
</svg>
