<svg width="24" height="24" viewBox="0 0 24 24" fill="none" xmlns="http://www.w3.org/2000/svg">
<path d="M12.0094 6.1875C11.3048 6.1875 10.616 6.39644 10.0302 6.78789C9.44433 7.17934 8.98772 7.73573 8.71808 8.38669C8.44844 9.03765 8.37789 9.75395 8.51535 10.445C8.65281 11.1361 8.99211 11.7708 9.49033 12.2691C9.98856 12.7673 10.6233 13.1066 11.3144 13.244C12.0054 13.3815 12.7217 13.311 13.3727 13.0413C14.0237 12.7717 14.5801 12.3151 14.9715 11.7292C15.363 11.1434 15.5719 10.4546 15.5719 9.75C15.5719 8.80517 15.1966 7.89903 14.5285 7.23093C13.8604 6.56283 12.9542 6.1875 12.0094 6.1875ZM12.0094 12.1875C11.5273 12.1875 11.056 12.0445 10.6552 11.7767C10.2544 11.5089 9.94193 11.1282 9.75744 10.6828C9.57295 10.2374 9.52468 9.7473 9.61874 9.27447C9.71279 8.80164 9.94494 8.36732 10.2858 8.02643C10.6267 7.68554 11.061 7.45339 11.5339 7.35934C12.0067 7.26528 12.4968 7.31356 12.9422 7.49804C13.3876 7.68253 13.7683 7.99495 14.0361 8.3958C14.3039 8.79664 14.4469 9.26791 14.4469 9.75C14.4444 10.3957 14.1868 11.0143 13.7302 11.4708C13.2737 11.9274 12.6551 12.185 12.0094 12.1875ZM12.0094 1.6875C9.87185 1.68998 7.82257 2.54022 6.31109 4.05169C4.79962 5.56317 3.94938 7.61245 3.9469 9.75C3.9469 12.6469 5.2969 15.7219 7.83752 18.6469C8.98323 19.9761 10.2758 21.1712 11.6906 22.2094C11.784 22.2753 11.8951 22.3113 12.0094 22.3125C12.1263 22.3098 12.2401 22.2741 12.3375 22.2094C13.7458 21.1668 15.0349 19.9721 16.1813 18.6469C18.7313 15.7219 20.0719 12.6469 20.0719 9.75C20.0694 7.61245 19.2192 5.56317 17.7077 4.05169C16.1962 2.54022 14.1469 1.68998 12.0094 1.6875ZM12.0094 21.0469C10.6032 19.9594 5.0719 15.3375 5.0719 9.75C5.0719 7.91006 5.80281 6.14548 7.10385 4.84445C8.40488 3.54341 10.1695 2.8125 12.0094 2.8125C13.8493 2.8125 15.6139 3.54341 16.915 4.84445C18.216 6.14548 18.9469 7.91006 18.9469 9.75C18.9469 15.3375 13.4157 19.9594 12.0094 21.0469Z" fill="#242424"/>
</svg>
