<svg width="24" height="24" viewBox="0 0 24 24" fill="none" xmlns="http://www.w3.org/2000/svg">
<path d="M21 4.875H3C2.90054 4.875 2.80516 4.91451 2.73484 4.98484C2.66451 5.05516 2.625 5.15054 2.625 5.25V18C2.625 18.2984 2.74353 18.5845 2.9545 18.7955C3.16548 19.0065 3.45163 19.125 3.75 19.125H20.25C20.5484 19.125 20.8345 19.0065 21.0455 18.7955C21.2565 18.5845 21.375 18.2984 21.375 18V5.25C21.375 5.15054 21.3355 5.05516 21.2652 4.98484C21.1948 4.91451 21.0995 4.875 21 4.875ZM12 12.9938L3.96562 5.625H20.0344L12 12.9938ZM9.80625 12L3.375 17.8969V6.10312L9.80625 12ZM10.3594 12.5062L11.7469 13.7719C11.815 13.8372 11.9057 13.8737 12 13.8737C12.0943 13.8737 12.185 13.8372 12.2531 13.7719L13.6406 12.5062L20.0344 18.375H3.96562L10.3594 12.5062ZM14.1937 12L20.625 6.10312V17.8969L14.1937 12Z" fill="#242424"/>
</svg>
